# xmcd
# Copyright (C) 1995-1998 Ti Kan
#
# Track frame offsets:
#       150
#       14786
#       28652
#
# Disc length: 591 seconds
#
# Revision: 0
# Processed by: cddbd v1.5.2PL0 Copyright (c) Steve Scherf et al.
# Submitted via: CD-Transfer v1.0
#
DISCID=20024d03
DTITLE=Ferrari,Tommaso - 
DYEAR=06
DGENRE=
TTITLE0=Nimm D'gitarre
TTITLE1=Dini Blaue Ouge
TTITLE2=I Weiss Nit Wele Wäg
EXTD=
EXTT0=
EXTT1=
EXTT2=
PLAYORDER=
